<?xml version="1.0" encoding="iso-8859-1"?>
<!-- Generator: Adobe Illustrator 19.0.0, SVG Export Plug-In . SVG Version: 6.00 Build 0)  -->
<svg version="1.1" id="Layer_1" xmlns="http://www.w3.org/2000/svg" xmlns:xlink="http://www.w3.org/1999/xlink" x="0px" y="0px"
	 viewBox="0 0 511.999 511.999" style="enable-background:new 0 0 511.999 511.999;" xml:space="preserve">
<g>
	<g>
		<path d="M511.934,7.33l-0.3-6.971l-6.971-0.299c-0.138-0.006-1.416-0.058-3.772-0.058c-12.288,0-56.965,1.498-115.951,20.77
			c-74.973,24.496-143.251,67.181-202.936,126.867c-47.295,47.294-93.488,105.149-126.735,158.728
			C29.013,348.68-1.872,408.661,0.089,454.129l0.128,2.955l54.686,54.697l2.956,0.128c1.359,0.059,2.76,0.088,4.163,0.088
			c0.002,0-0.002,0,0.001,0c45.856,0,104.943-31.015,146.43-57.03c52.711-33.053,109.534-78.604,155.902-124.972
			c35.257-35.256,64.954-74.108,88.266-115.473c18.669-33.127,33.306-67.932,43.506-103.444
			C513.554,50.398,512.009,9.06,511.934,7.33z M481.321,107.542c-9.907,34.292-24.098,67.91-42.176,99.918
			c-22.598,40.009-51.378,77.617-85.541,111.78c-45.596,45.597-101.445,90.371-153.229,122.843
			c-56.259,35.279-105.393,54.708-138.353,54.707c-0.202,0-0.405-0.001-0.606-0.002l-46.205-46.213
			c-0.211-32.458,18.505-80.629,52.98-136.19c32.658-52.631,78.061-109.488,124.567-155.992
			c57.979-57.979,124.228-99.419,196.906-123.166c51.441-16.807,91.262-19.588,107.057-19.965
			C496.361,29.492,494.053,63.47,481.321,107.542z"/>
	</g>
</g>
<g>
	<g>
		<path d="M308.022,320.834c-10.697,9.864-21.902,19.693-33.3,29.213l9.749,11.671c11.588-9.679,22.978-19.672,33.859-29.705
			L308.022,320.834z"/>
	</g>
</g>
<g>
	<g>
		<path d="M464.441,39.063c-2.408,20.197-6.747,41.039-12.897,61.948c-9.348,31.784-22.653,62.96-39.548,92.665
			c-21.139,37.169-48.022,72.179-79.899,104.058c-3.093,3.094-6.275,6.224-9.461,9.304l10.571,10.932
			c3.246-3.139,6.49-6.328,9.643-9.481c32.841-32.841,60.552-68.939,82.366-107.293c17.473-30.723,31.24-62.985,40.917-95.893
			c6.389-21.722,10.9-43.403,13.408-64.44L464.441,39.063z"/>
	</g>
</g>
<g>
</g>
<g>
</g>
<g>
</g>
<g>
</g>
<g>
</g>
<g>
</g>
<g>
</g>
<g>
</g>
<g>
</g>
<g>
</g>
<g>
</g>
<g>
</g>
<g>
</g>
<g>
</g>
<g>
</g>
</svg>
